<?xml version="1.0" encoding="UTF-8" standalone="no"?>
<svg
   xmlns:dc="http://purl.org/dc/elements/1.1/"
   xmlns:cc="http://creativecommons.org/ns#"
   xmlns:rdf="http://www.w3.org/1999/02/22-rdf-syntax-ns#"
   xmlns:svg="http://www.w3.org/2000/svg"
   xmlns="http://www.w3.org/2000/svg"
   viewBox="0 0 666.66669 666.66669"
   height="666.66669"
   width="666.66669"
   xml:space="preserve"
   id="svg2"
   version="1.1"><metadata
     id="metadata8"><rdf:RDF><cc:Work
         rdf:about=""><dc:format>image/svg+xml</dc:format><dc:type
           rdf:resource="http://purl.org/dc/dcmitype/StillImage" /><dc:title></dc:title></cc:Work></rdf:RDF></metadata><defs
     id="defs6"><clipPath
       id="clipPath28"
       clipPathUnits="userSpaceOnUse"><path
         id="path26"
         d="M 0,500 H 500 V 0 H 0 Z" /></clipPath><clipPath
       id="clipPath78"
       clipPathUnits="userSpaceOnUse"><path
         id="path76"
         d="M 0,500 H 500 V 0 H 0 Z" /></clipPath><clipPath
       id="clipPath110"
       clipPathUnits="userSpaceOnUse"><path
         id="path108"
         d="M 0,500 H 500 V 0 H 0 Z" /></clipPath><clipPath
       id="clipPath148"
       clipPathUnits="userSpaceOnUse"><path
         id="path146"
         d="M 0,500 H 500 V 0 H 0 Z" /></clipPath></defs><g
     transform="matrix(1.3333333,0,0,-1.3333333,0,666.66667)"
     id="g10"><text
       y="-259.86322"
       x="227.23369"
       id="text16"
       style="font-variant:normal;font-weight:bold;font-stretch:normal;font-size:34.28087234px;font-family:Montserrat;-inkscape-font-specification:Montserrat-Bold;writing-mode:lr-tb;fill:#8542d4;fill-opacity:1;fill-rule:nonzero;stroke:none;stroke-width:0.94868356"
       transform="scale(0.94868361,-1.0540922)"><tspan
         style="font-style:normal;font-variant:normal;font-weight:bold;font-stretch:normal;font-size:48px;line-height:0px;font-family:Poppins;-inkscape-font-specification:'Poppins Bold';font-variant-ligatures:normal;font-variant-caps:normal;font-variant-numeric:normal;font-feature-settings:normal;text-align:start;writing-mode:lr-tb;text-anchor:start;stroke-width:0.94868356"
         y="-259.86322"
         x="227.23369"
         id="tspan14">Spectre.</tspan></text>
<g
       transform="translate(39.194917,-73.093224)"
       style="fill:#8542d4;fill-opacity:1"
       id="g22"><g
         style="fill:#8542d4;fill-opacity:1"
         clip-path="url(#clipPath28)"
         id="g24"><g
           style="fill:#8542d4;fill-opacity:1"
           transform="translate(149.9355,353.4185)"
           id="g30"><path
             id="path32"
             style="fill:#8542d4;fill-opacity:1;fill-rule:nonzero;stroke:none"
             d="m 0,0 c -0.734,0 -1.329,0.595 -1.329,1.329 0,13.613 7.265,22.114 9.629,24.52 L -6.569,58.458 -21.417,25.85 c 2.364,-2.407 9.628,-10.908 9.628,-24.521 0,-0.734 -0.594,-1.329 -1.328,-1.329 -0.734,0 -1.329,0.595 -1.329,1.329 0,14.725 -9.353,23.136 -9.448,23.22 -0.439,0.386 -0.573,1.014 -0.331,1.547 l 16.446,36.117 c 0.216,0.474 0.688,0.778 1.208,0.778 h 10e-4 c 0.52,0 0.992,-0.303 1.209,-0.777 L 11.107,26.097 C 11.35,25.564 11.216,24.936 10.777,24.549 10.684,24.466 1.329,15.999 1.329,1.329 1.329,0.595 0.734,0 0,0" /></g><g
           style="fill:#8542d4;fill-opacity:1"
           transform="translate(143.3652,378.2231)"
           id="g34"><path
             id="path36"
             style="fill:#8542d4;fill-opacity:1;fill-rule:nonzero;stroke:none"
             d="m 0,0 c -0.587,0 -1.063,0.476 -1.063,1.063 v 35.795 c 0,0.587 0.476,1.063 1.063,1.063 0.587,0 1.063,-0.476 1.063,-1.063 V 1.063 C 1.063,0.476 0.587,0 0,0" /></g><g
           style="fill:#8542d4;fill-opacity:1"
           transform="translate(147.5586,379.2861)"
           id="g38"><path
             id="path40"
             style="fill:#8542d4;fill-opacity:1;fill-rule:nonzero;stroke:none"
             d="m 0,0 c 0,-2.314 -1.879,-4.192 -4.193,-4.192 -2.315,0 -4.192,1.878 -4.192,4.192 0,2.315 1.877,4.192 4.192,4.192 C -1.879,4.192 0,2.315 0,0" /></g><g
           style="fill:#8542d4;fill-opacity:1"
           transform="translate(103.2539,396.5186)"
           id="g42"><path
             id="path44"
             style="fill:#8542d4;fill-opacity:1;fill-rule:nonzero;stroke:none"
             d="m 0,0 h -0.012 c -0.586,0.006 -1.056,0.484 -1.051,1.07 0.003,0.304 0.135,7.503 6.443,13.173 5.933,5.333 15.155,7.428 27.413,6.222 13.451,-1.322 23.868,0.87 30.124,6.339 5.189,4.536 6.137,9.981 6.24,12.823 0.021,0.586 0.491,1.053 1.1,1.024 0.587,-0.021 1.045,-0.514 1.024,-1.101 C 71.166,36.365 70.107,30.266 64.316,25.204 57.605,19.34 46.634,16.969 32.585,18.35 20.972,19.493 12.308,17.588 6.834,12.691 1.215,7.665 1.063,1.116 1.062,1.05 1.055,0.468 0.581,0 0,0" /></g><path
           id="path46"
           style="fill:#8542d4;fill-opacity:1;fill-rule:nonzero;stroke:none"
           d="m 177.002,429.739 h -9.898 v 9.899 h 9.898 z" /><path
           id="path48"
           style="fill:#8542d4;fill-opacity:1;fill-rule:nonzero;stroke:none"
           d="M 110.188,390.646 H 96.323 v 13.869 h 13.865 z" /><g
           style="fill:#8542d4;fill-opacity:1"
           transform="translate(168.1934,398.7344)"
           id="g50"><path
             id="path52"
             style="fill:#8542d4;fill-opacity:1;fill-rule:nonzero;stroke:none"
             d="M 0,0 C -0.048,0 -0.096,0.014 -0.139,0.043 L -47.434,32.72 c -0.11,0.077 -0.138,0.229 -0.062,0.34 0.077,0.111 0.228,0.138 0.34,0.062 L 0.139,0.445 C 0.25,0.368 0.277,0.216 0.201,0.105 0.153,0.037 0.077,0 0,0" /></g><g
           style="fill:#8542d4;fill-opacity:1"
           transform="translate(170.793,398.9785)"
           id="g54"><path
             id="path56"
             style="fill:#8542d4;fill-opacity:1;fill-rule:nonzero;stroke:none"
             d="m 0,0 c 0,-1.435 -1.166,-2.597 -2.6,-2.597 -1.433,0 -2.595,1.162 -2.595,2.597 0,1.435 1.162,2.597 2.595,2.597 C -1.166,2.597 0,1.435 0,0" /></g><g
           style="fill:#8542d4;fill-opacity:1"
           transform="translate(124.1367,431.5566)"
           id="g58"><path
             id="path60"
             style="fill:#8542d4;fill-opacity:1;fill-rule:nonzero;stroke:none"
             d="m 0,0 c 0,-1.435 -1.164,-2.598 -2.598,-2.598 -1.435,0 -2.595,1.163 -2.595,2.598 0,1.436 1.16,2.599 2.595,2.599 C -1.164,2.599 0,1.436 0,0" /></g><path
           id="path62"
           style="fill:#8542d4;fill-opacity:1;fill-rule:nonzero;stroke:none"
           d="m 125.998,354.729 h 34.824 v -7.747 h -34.824 z" /></g></g></g></svg>