<?xml version="1.0" encoding="UTF-8" standalone="no"?>
<svg
   xmlns:dc="http://purl.org/dc/elements/1.1/"
   xmlns:cc="http://creativecommons.org/ns#"
   xmlns:rdf="http://www.w3.org/1999/02/22-rdf-syntax-ns#"
   xmlns:svg="http://www.w3.org/2000/svg"
   xmlns="http://www.w3.org/2000/svg"
   viewBox="0 0 666.66669 666.66669"
   height="666.66669"
   width="666.66669"
   xml:space="preserve"
   id="svg2"
   version="1.1"><metadata
     id="metadata8"><rdf:RDF><cc:Work
         rdf:about=""><dc:format>image/svg+xml</dc:format><dc:type
           rdf:resource="http://purl.org/dc/dcmitype/StillImage" /><dc:title></dc:title></cc:Work></rdf:RDF></metadata><defs
     id="defs6"><clipPath
       id="clipPath28"
       clipPathUnits="userSpaceOnUse"><path
         id="path26"
         d="M 0,500 H 500 V 0 H 0 Z" /></clipPath><clipPath
       id="clipPath78"
       clipPathUnits="userSpaceOnUse"><path
         id="path76"
         d="M 0,500 H 500 V 0 H 0 Z" /></clipPath><clipPath
       id="clipPath110"
       clipPathUnits="userSpaceOnUse"><path
         id="path108"
         d="M 0,500 H 500 V 0 H 0 Z" /></clipPath><clipPath
       id="clipPath148"
       clipPathUnits="userSpaceOnUse"><path
         id="path146"
         d="M 0,500 H 500 V 0 H 0 Z" /></clipPath></defs><g
     transform="matrix(1.3333333,0,0,-1.3333333,0,666.66667)"
     id="g10"><g
       transform="translate(27.542374,-25.42373)"
       id="g202"><text
         transform="scale(0.94868361,-1.0540922)"
         style="font-variant:normal;font-weight:bold;font-stretch:normal;font-size:34.28087234px;font-family:Montserrat;-inkscape-font-specification:Montserrat-Bold;writing-mode:lr-tb;fill:#1c57b9;fill-opacity:1;fill-rule:nonzero;stroke:none;stroke-width:0.94868356"
         id="text136"
         x="207.83421"
         y="-230.80373"><tspan
           id="tspan134"
           style="font-style:normal;font-variant:normal;font-weight:bold;font-stretch:normal;font-size:12px;font-family:Montserrat;-inkscape-font-specification:'Montserrat, Bold';font-variant-ligatures:normal;font-variant-caps:normal;font-variant-numeric:normal;font-feature-settings:normal;text-align:start;writing-mode:lr-tb;text-anchor:start;stroke-width:0.94868356"
           x="207.83421"
           y="-230.80373">Designs By Anne</tspan></text>
<g
         id="g142"
         transform="translate(-120.76272,-86.864412)"><g
           id="g144"
           clip-path="url(#clipPath148)"><g
             id="g150"
             transform="translate(411.4531,394.4639)"><path
               d="m 0,0 c 0,-5.55 -4.5,-10.049 -10.049,-10.049 -5.549,0 -10.047,4.499 -10.047,10.049 0,5.549 4.498,10.048 10.047,10.048 C -4.5,10.048 0,5.549 0,0"
               style="fill:#febe0b;fill-opacity:1;fill-rule:nonzero;stroke:none"
               id="path152" /></g><g
             id="g154"
             transform="translate(397.9629,422.9658)"><path
               d="m 0,0 c 0,-6.994 -5.67,-12.662 -12.662,-12.662 -6.99,0 -12.658,5.668 -12.658,12.662 0,6.992 5.668,12.66 12.658,12.66 C -5.67,12.66 0,6.992 0,0"
               style="fill:#ee373e;fill-opacity:1;fill-rule:nonzero;stroke:none"
               id="path156" /></g><g
             id="g158"
             transform="translate(406.4023,363.9561)"><path
               d="m 0,0 c 0,-4.732 -3.834,-8.567 -8.566,-8.567 -4.729,0 -8.567,3.835 -8.567,8.567 0,4.73 3.838,8.566 8.567,8.566 C -3.834,8.566 0,4.73 0,0"
               style="fill:#42a145;fill-opacity:1;fill-rule:nonzero;stroke:none"
               id="path160" /></g><g
             id="g162"
             transform="translate(378.8887,353.6006)"><path
               d="m 0,0 c 0,-4.033 -3.27,-7.302 -7.301,-7.302 -4.031,0 -7.303,3.269 -7.303,7.302 0,4.032 3.272,7.301 7.303,7.301 C -3.27,7.301 0,4.032 0,0"
               style="fill:#1c57b9;fill-opacity:1;fill-rule:nonzero;stroke:none"
               id="path164" /></g><g
             id="g166"
             transform="translate(352.3965,362.7881)"><path
               d="m 0,0 c 0,-3.438 -2.785,-6.225 -6.223,-6.225 -3.435,0 -6.222,2.787 -6.222,6.225 0,3.438 2.787,6.224 6.222,6.224 C -2.785,6.224 0,3.438 0,0"
               style="fill:#8542d4;fill-opacity:1;fill-rule:nonzero;stroke:none"
               id="path168" /></g><g
             id="g170"
             transform="translate(343.6543,418.7617)"><path
               d="m 0,0 -6.32,-6.32 -6.321,-6.321 c 0,0 18.959,-18.959 23.795,-23.793 4.832,-4.833 5.932,-3.732 9.908,-4.961 3.973,-1.229 5.043,-3.398 8.665,-6.469 1.31,-1.112 2.462,-1.466 3.4,-1.466 1.65,0 2.631,1.101 2.631,1.101 0,0 2.537,2.243 -0.533,5.863 -3.073,3.619 -5.239,4.691 -6.471,8.664 -1.227,3.978 -0.129,5.076 -4.961,9.908 C 18.957,-18.96 0,0 0,0 m 0,-3.599 21.994,-21.994 c 3.063,-3.062 3.27,-4.115 3.647,-6.027 0.156,-0.796 0.334,-1.698 0.683,-2.835 1.049,-3.384 2.69,-5.062 4.592,-7.004 0.746,-0.763 1.518,-1.551 2.367,-2.554 0.822,-0.967 1.106,-1.785 0.795,-2.275 l 0.006,0.045 -0.201,-0.261 c -0.09,-0.075 -0.373,-0.282 -0.756,-0.282 -0.482,0 -1.088,0.298 -1.754,0.862 -1.004,0.852 -1.793,1.624 -2.557,2.371 -1.941,1.901 -3.619,3.542 -7.004,4.589 -1.134,0.351 -2.037,0.528 -2.833,0.685 -1.913,0.376 -2.965,0.583 -6.028,3.645 l -21.994,21.993 4.522,4.522 4.521,4.52"
               style="fill:#58595b;fill-opacity:1;fill-rule:nonzero;stroke:none"
               id="path172" /></g><g
             id="g174"
             transform="translate(358.1895,408.9971)"><path
               d="m 0,0 -1.939,1.939 c -1.028,1.027 -2.707,1.028 -3.733,0 L -6.811,0.801 C -7.186,2.244 -7.93,3.61 -9.055,4.735 l -10.043,10.043 c -3.379,3.378 -8.908,3.378 -12.287,0 l -0.804,-0.805 c -3.379,-3.379 -3.379,-8.909 0,-12.287 l 10.043,-10.042 c 1.125,-1.125 2.49,-1.868 3.933,-2.243 l -1.139,-1.139 c -1.027,-1.028 -1.027,-2.707 0,-3.734 l 1.94,-1.939 c 1.027,-1.026 2.705,-1.026 3.732,0 L 0,-3.733 C 1.025,-2.706 1.025,-1.025 0,0"
               style="fill:#58595b;fill-opacity:1;fill-rule:nonzero;stroke:none"
               id="path176" /></g><g
             id="g178"
             transform="translate(378.8789,376.3955)"><path
               d="m 0,0 c -1.912,2.251 -3.471,3.518 -4.674,5.108 l -2.871,0.191 h -15.873 c 4.281,-4.089 5.467,-3.157 9.256,-4.327 3.973,-1.23 5.043,-3.399 8.664,-6.47 3.621,-3.07 6.031,-0.364 6.031,-0.364 0,0 2.537,2.242 -0.533,5.862"
               style="fill:#58595b;fill-opacity:1;fill-rule:nonzero;stroke:none"
               id="path180" /></g></g></g></g></g></svg>